<svg xmlns="http://www.w3.org/2000/svg">
    <symbol id="icon-menu-toggle" fill="none" viewBox="0 0 24 24">
        <path stroke-linecap="round" stroke-linejoin="round" stroke-width="2" d="M4 6h16M4 12h16M4 18h16"></path>
    </symbol>

    <symbol id="icon-daisyui" viewBox="0 0 415 415">
        <rect x="82.5" y="290" width="250" height="125" rx="62.5" fill="#1AD1A5"></rect>
        <circle cx="207.5" cy="135" r="130" fill="black" fill-opacity=".3"></circle>
        <circle cx="207.5" cy="135" r="125" fill="white"></circle>
        <circle cx="207.5" cy="135" r="56" fill="#FF9903"></circle>
    </symbol>

    <symbol id="icon-color-swatch" fill="none" viewBox="0 0 24 24">
        <path stroke-linecap="round" stroke-linejoin="round" stroke-width="2" d="M7 21a4 4 0 01-4-4V5a2 2 0 012-2h4a2 2 0 012 2v12a4 4 0 01-4 4zm0 0h12a2 2 0 002-2v-4a2 2 0 00-2-2h-2.343M11 7.343l1.657-1.657a2 2 0 012.828 0l2.829 2.829a2 2 0 010 2.828l-8.486 8.485M7 17h.01"></path>
    </symbol>

    <symbol id="icon-action" viewBox="0 0 48 48" fill="none" stroke="currentColor">
        <path d="M24 4V12" stroke-width="4" stroke-linecap="butt" stroke-linejoin="bevel"/>
        <path fill-rule="evenodd" clip-rule="evenodd" d="M22 22L42 26L36 30L42 36L36 42L30 36L26 42L22 22Z" fill="none" stroke-width="4" stroke-linecap="butt" stroke-linejoin="bevel"/>
        <path d="M38.1421 9.85789L32.4853 15.5147" stroke-width="4" stroke-linecap="butt" stroke-linejoin="bevel"/>
        <path d="M9.85787 38.1421L15.5147 32.4853" stroke-width="4" stroke-linecap="butt" stroke-linejoin="bevel"/>
        <path d="M4 24H12" stroke-width="4" stroke-linecap="butt" stroke-linejoin="bevel"/>
        <path d="M9.85795 9.85787L15.5148 15.5147" stroke-width="4" stroke-linecap="butt" stroke-linejoin="bevel"/>
    </symbol>

    <symbol id="icon-data-display" viewBox="0 0 48 48" fill="none">
        <rect x="4" y="8" width="40" height="32" rx="3" stroke="currentColor" stroke-width="4" stroke-linejoin="bevel"/>
        <path d="M4 11C4 9.34315 5.34315 8 7 8H41C42.6569 8 44 9.34315 44 11V20H4V11Z" fill="none" stroke="currentColor" stroke-width="4"/>
        <circle r="2" transform="matrix(-1.31134e-07 -1 -1 1.31134e-07 10 14)" fill="currentColor"/>
        <circle r="2" transform="matrix(-1.31134e-07 -1 -1 1.31134e-07 16 14)" fill="currentColor"/>
    </symbol>

    <symbol id="icon-navigation" viewBox="0 0 48 48" fill="none">
        <path d="M30 19H20C15.5817 19 12 22.5817 12 27C12 31.4183 15.5817 35 20 35H36C40.4183 35 44 31.4183 44 27C44 24.9711 43.2447 23.1186 42 21.7084" stroke="currentColor" stroke-width="4" stroke-linecap="butt" stroke-linejoin="bevel"/>
        <path d="M6 24.2916C4.75527 22.8814 4 21.0289 4 19C4 14.5817 7.58172 11 12 11H28C32.4183 11 36 14.5817 36 19C36 23.4183 32.4183 27 28 27H18" stroke="currentColor" stroke-width="4" stroke-linecap="butt" stroke-linejoin="bevel"/>
    </symbol>

    <symbol id="icon-feedback" viewBox="0 0 48 48" fill="none">
        <path d="M4 6H44V36H29L24 41L19 36H4V6Z" fill="none" stroke="currentColor" stroke-width="4" stroke-linecap="butt" stroke-linejoin="bevel"/>
        <path d="M23 21H25.0025" stroke="currentColor" stroke-width="4" stroke-linecap="butt"/>
        <path d="M33.001 21H34.9999" stroke="currentColor" stroke-width="4" stroke-linecap="butt"/>
        <path d="M13.001 21H14.9999" stroke="currentColor" stroke-width="4" stroke-linecap="butt"/>
    </symbol>

    <symbol id="icon-data-input" viewBox="0 0 48 48" fill="none">
        <path d="M7 42H43" stroke="currentColor" stroke-width="4" stroke-linecap="butt" stroke-linejoin="bevel"/>
        <path d="M11 26.7199V34H18.3172L39 13.3081L31.6951 6L11 26.7199Z" fill="none" stroke="currentColor" stroke-width="4" stroke-linejoin="bevel"/>
    </symbol>

    <symbol id="icon-layout" viewBox="0 0 48 48" fill="none">
        <rect x="6" y="6" width="36" height="36" rx="3" fill="none" stroke="currentColor" stroke-width="4" stroke-linejoin="bevel"/>
        <path d="M6 22L42 22" stroke="currentColor" stroke-width="4" stroke-linecap="butt" stroke-linejoin="bevel"/>
        <path d="M29 22V6" stroke="currentColor" stroke-width="4" stroke-linecap="butt" stroke-linejoin="bevel"/>
        <path d="M26 6H32" stroke="currentColor" stroke-width="4" stroke-linecap="butt" stroke-linejoin="bevel"/>
        <path d="M6 19V25" stroke="currentColor" stroke-width="4" stroke-linecap="butt" stroke-linejoin="bevel"/>
        <path d="M42 19V25" stroke="currentColor" stroke-width="4" stroke-linecap="butt" stroke-linejoin="bevel"/>
    </symbol>

    <symbol id="icon-mockup" viewBox="0 0 48 48" fill="none">
        <path d="M8 30H40V42C40 43.1046 39.1046 44 38 44H10C8.89543 44 8 43.1046 8 42V30Z" fill="none" stroke="currentColor" stroke-width="4" stroke-linejoin="bevel"/>
        <path d="M40 30V6C40 4.89543 39.1046 4 38 4H10C8.89543 4 8 4.89543 8 6V30" stroke="currentColor" stroke-width="4" stroke-linejoin="bevel"/>
        <path d="M22 37H26" stroke="currentColor" stroke-width="4" stroke-linecap="butt"/>
    </symbol>

</svg>
