<svg xmlns="http://www.w3.org/2000/svg">
    <!-- UI -->
    <symbol class="bi bi-chevron-down" viewBox="0 0 16 16" id="chevron-down">
        <path fill-rule="evenodd" d="M1.646 4.646a.5.5 0 0 1 .708 0L8 10.293l5.646-5.647a.5.5 0 0 1 .708.708l-6 6a.5.5 0 0 1-.708 0l-6-6a.5.5 0 0 1 0-.708"/>
    </symbol>
    <symbol class="bi bi-list" viewBox="0 0 16 16" id="list">
        <path fill-rule="evenodd" d="M2.5 12a.5.5 0 0 1 .5-.5h10a.5.5 0 0 1 0 1H3a.5.5 0 0 1-.5-.5m0-4a.5.5 0 0 1 .5-.5h10a.5.5 0 0 1 0 1H3a.5.5 0 0 1-.5-.5m0-4a.5.5 0 0 1 .5-.5h10a.5.5 0 0 1 0 1H3a.5.5 0 0 1-.5-.5"/>
    </symbol>
    <symbol class="bi bi-three-dots" viewBox="0 0 16 16" id="three-dots">
        <path d="M3 9.5a1.5 1.5 0 1 1 0-3 1.5 1.5 0 0 1 0 3m5 0a1.5 1.5 0 1 1 0-3 1.5 1.5 0 0 1 0 3m5 0a1.5 1.5 0 1 1 0-3 1.5 1.5 0 0 1 0 3"/>
    </symbol>
    <symbol class="bi bi-three-dots-vertical" viewBox="0 0 16 16" id="three-dots-vertical">
        <path d="M9.5 13a1.5 1.5 0 1 1-3 0 1.5 1.5 0 0 1 3 0m0-5a1.5 1.5 0 1 1-3 0 1.5 1.5 0 0 1 3 0m0-5a1.5 1.5 0 1 1-3 0 1.5 1.5 0 0 1 3 0"/>
    </symbol>
    <symbol class="bi bi-x" viewBox="0 0 16 16" id="x">
        <path d="M4.646 4.646a.5.5 0 0 1 .708 0L8 7.293l2.646-2.647a.5.5 0 0 1 .708.708L8.707 8l2.647 2.646a.5.5 0 0 1-.708.708L8 8.707l-2.646 2.647a.5.5 0 0 1-.708-.708L7.293 8 4.646 5.354a.5.5 0 0 1 0-.708"/>
    </symbol>
    <symbol class="bi bi-check" viewBox="0 0 16 16" id="check">
        <path d="M10.97 4.97a.75.75 0 0 1 1.07 1.05l-3.99 4.99a.75.75 0 0 1-1.08.02L4.324 8.384a.75.75 0 1 1 1.06-1.06l2.094 2.093 3.473-4.425z"/>
    </symbol>
    <symbol class="bi bi-search" viewBox="0 0 16 16" id="search">
        <path d="M11.742 10.344a6.5 6.5 0 1 0-1.397 1.398h-.001q.044.06.098.115l3.85 3.85a1 1 0 0 0 1.415-1.414l-3.85-3.85a1 1 0 0 0-.115-.1zM12 6.5a5.5 5.5 0 1 1-11 0 5.5 5.5 0 0 1 11 0"/>
    </symbol>

    <!-- States -->
    <symbol class="bi bi-info-circle" viewBox="0 0 16 16" id="info-circle">
        <path d="M8 15A7 7 0 1 1 8 1a7 7 0 0 1 0 14m0 1A8 8 0 1 0 8 0a8 8 0 0 0 0 16"/>
        <path d="m8.93 6.588-2.29.287-.082.38.45.083c.294.07.352.176.288.469l-.738 3.468c-.194.897.105 1.319.808 1.319.545 0 1.178-.252 1.465-.598l.088-.416c-.2.176-.492.246-.686.246-.275 0-.375-.193-.304-.533zM9 4.5a1 1 0 1 1-2 0 1 1 0 0 1 2 0"/>
    </symbol>
    <symbol class="bi bi-check-circle" viewBox="0 0 16 16" id="check-circle">
        <path d="M8 15A7 7 0 1 1 8 1a7 7 0 0 1 0 14m0 1A8 8 0 1 0 8 0a8 8 0 0 0 0 16"/>
        <path d="m10.97 4.97-.02.022-3.473 4.425-2.093-2.094a.75.75 0 0 0-1.06 1.06L6.97 11.03a.75.75 0 0 0 1.079-.02l3.992-4.99a.75.75 0 0 0-1.071-1.05"/>
    </symbol>
    <symbol class="bi bi-exclamation-triangle" viewBox="0 0 16 16" id="exclamation-triangle">
        <path d="M7.938 2.016A.13.13 0 0 1 8.002 2a.13.13 0 0 1 .063.016.15.15 0 0 1 .054.057l6.857 11.667c.036.06.035.124.002.183a.2.2 0 0 1-.054.06.1.1 0 0 1-.066.017H1.146a.1.1 0 0 1-.066-.017.2.2 0 0 1-.054-.06.18.18 0 0 1 .002-.183L7.884 2.073a.15.15 0 0 1 .054-.057m1.044-.45a1.13 1.13 0 0 0-1.96 0L.165 13.233c-.457.778.091 1.767.98 1.767h13.713c.889 0 1.438-.99.98-1.767z"/>
        <path d="M7.002 12a1 1 0 1 1 2 0 1 1 0 0 1-2 0M7.1 5.995a.905.905 0 1 1 1.8 0l-.35 3.507a.552.552 0 0 1-1.1 0z"/>
    </symbol>
    <symbol class="bi bi-x-circle" viewBox="0 0 16 16" id="x-circle">
        <path d="M8 15A7 7 0 1 1 8 1a7 7 0 0 1 0 14m0 1A8 8 0 1 0 8 0a8 8 0 0 0 0 16"/>
        <path d="M4.646 4.646a.5.5 0 0 1 .708 0L8 7.293l2.646-2.647a.5.5 0 0 1 .708.708L8.707 8l2.647 2.646a.5.5 0 0 1-.708.708L8 8.707l-2.646 2.647a.5.5 0 0 1-.708-.708L7.293 8 4.646 5.354a.5.5 0 0 1 0-.708"/>
    </symbol>

    <!-- Brands -->
    <symbol class="bi bi-github" viewBox="0 0 16 16" id="github">
        <path d="M8 0C3.58 0 0 3.58 0 8c0 3.54 2.29 6.53 5.47 7.59.4.07.55-.17.55-.38 0-.19-.01-.82-.01-1.49-2.01.37-2.53-.49-2.69-.94-.09-.23-.48-.94-.82-1.13-.28-.15-.68-.52-.01-.53.63-.01 1.08.58 1.23.82.72 1.21 1.87.87 2.33.66.07-.52.28-.87.51-1.07-1.78-.2-3.64-.89-3.64-3.95 0-.87.31-1.59.82-2.15-.08-.2-.36-1.02.08-2.12 0 0 .67-.21 2.2.82.64-.18 1.32-.27 2-.27s1.36.09 2 .27c1.53-1.04 2.2-.82 2.2-.82.44 1.1.16 1.92.08 2.12.51.56.82 1.27.82 2.15 0 3.07-1.87 3.75-3.65 3.95.29.25.54.73.54 1.48 0 1.07-.01 1.93-.01 2.2 0 .21.15.46.55.38A8.01 8.01 0 0 0 16 8c0-4.42-3.58-8-8-8"/>
    </symbol>
    <symbol class="bi bi-twitter" viewBox="0 0 16 16" id="twitter">
        <path d="M5.026 15c6.038 0 9.341-5.003 9.341-9.334q.002-.211-.006-.422A6.7 6.7 0 0 0 16 3.542a6.7 6.7 0 0 1-1.889.518 3.3 3.3 0 0 0 1.447-1.817 6.5 6.5 0 0 1-2.087.793A3.286 3.286 0 0 0 7.875 6.03a9.32 9.32 0 0 1-6.767-3.429 3.29 3.29 0 0 0 1.018 4.382A3.3 3.3 0 0 1 .64 6.575v.045a3.29 3.29 0 0 0 2.632 3.218 3.2 3.2 0 0 1-.865.115 3 3 0 0 1-.614-.057 3.28 3.28 0 0 0 3.067 2.277A6.6 6.6 0 0 1 .78 13.58a6 6 0 0 1-.78-.045A9.34 9.34 0 0 0 5.026 15"/>
    </symbol>
    <symbol class="bi bi-youtube" viewBox="0 0 16 16" id="youtube">
        <path d="M8.051 1.999h.089c.822.003 4.987.033 6.11.335a2.01 2.01 0 0 1 1.415 1.42c.101.38.172.883.22 1.402l.01.104.022.26.008.104c.065.914.073 1.77.074 1.957v.075c-.001.194-.01 1.108-.082 2.06l-.008.105-.009.104c-.05.572-.124 1.14-.235 1.558a2.01 2.01 0 0 1-1.415 1.42c-1.16.312-5.569.334-6.18.335h-.142c-.309 0-1.587-.006-2.927-.052l-.17-.006-.087-.004-.171-.007-.171-.007c-1.11-.049-2.167-.128-2.654-.26a2.01 2.01 0 0 1-1.415-1.419c-.111-.417-.185-.986-.235-1.558L.09 9.82l-.008-.104A31 31 0 0 1 0 7.68v-.123c.002-.215.01-.958.064-1.778l.007-.103.003-.052.008-.104.022-.26.01-.104c.048-.519.119-1.023.22-1.402a2.01 2.01 0 0 1 1.415-1.42c.487-.13 1.544-.21 2.654-.26l.17-.007.172-.006.086-.003.171-.007A100 100 0 0 1 7.858 2zM6.4 5.209v4.818l4.157-2.408z"/>
    </symbol>
    <symbol class="bi bi-facebook" viewBox="0 0 16 16" id="facebook">
        <path d="M16 8.049c0-4.446-3.582-8.05-8-8.05C3.58 0-.002 3.603-.002 8.05c0 4.017 2.926 7.347 6.75 7.951v-5.625h-2.03V8.05H6.75V6.275c0-2.017 1.195-3.131 3.022-3.131.876 0 1.791.157 1.791.157v1.98h-1.009c-.993 0-1.303.621-1.303 1.258v1.51h2.218l-.354 2.326H9.25V16c3.824-.604 6.75-3.934 6.75-7.951"/>
    </symbol>
    <symbol class="bi bi-google" viewBox="0 0 16 16" id="google">
        <path d="M15.545 6.558a9.4 9.4 0 0 1 .139 1.626c0 2.434-.87 4.492-2.384 5.885h.002C11.978 15.292 10.158 16 8 16A8 8 0 1 1 8 0a7.7 7.7 0 0 1 5.352 2.082l-2.284 2.284A4.35 4.35 0 0 0 8 3.166c-2.087 0-3.86 1.408-4.492 3.304a4.8 4.8 0 0 0 0 3.063h.003c.635 1.893 2.405 3.301 4.492 3.301 1.078 0 2.004-.276 2.722-.764h-.003a3.7 3.7 0 0 0 1.599-2.431H8v-3.08z"/>
    </symbol>
    <symbol class="bi bi-instagram" viewBox="0 0 16 16" id="instagram">
        <path d="M8 0C5.829 0 5.556.01 4.703.048 3.85.088 3.269.222 2.76.42a3.9 3.9 0 0 0-1.417.923A3.9 3.9 0 0 0 .42 2.76C.222 3.268.087 3.85.048 4.7.01 5.555 0 5.827 0 8.001c0 2.172.01 2.444.048 3.297.04.852.174 1.433.372 1.942.205.526.478.972.923 1.417.444.445.89.719 1.416.923.51.198 1.09.333 1.942.372C5.555 15.99 5.827 16 8 16s2.444-.01 3.298-.048c.851-.04 1.434-.174 1.943-.372a3.9 3.9 0 0 0 1.416-.923c.445-.445.718-.891.923-1.417.197-.509.332-1.09.372-1.942C15.99 10.445 16 10.173 16 8s-.01-2.445-.048-3.299c-.04-.851-.175-1.433-.372-1.941a3.9 3.9 0 0 0-.923-1.417A3.9 3.9 0 0 0 13.24.42c-.51-.198-1.092-.333-1.943-.372C10.443.01 10.172 0 7.998 0zm-.717 1.442h.718c2.136 0 2.389.007 3.232.046.78.035 1.204.166 1.486.275.373.145.64.319.92.599s.453.546.598.92c.11.281.24.705.275 1.485.039.843.047 1.096.047 3.231s-.008 2.389-.047 3.232c-.035.78-.166 1.203-.275 1.485a2.5 2.5 0 0 1-.599.919c-.28.28-.546.453-.92.598-.28.11-.704.24-1.485.276-.843.038-1.096.047-3.232.047s-2.39-.009-3.233-.047c-.78-.036-1.203-.166-1.485-.276a2.5 2.5 0 0 1-.92-.598 2.5 2.5 0 0 1-.6-.92c-.109-.281-.24-.705-.275-1.485-.038-.843-.046-1.096-.046-3.233s.008-2.388.046-3.231c.036-.78.166-1.204.276-1.486.145-.373.319-.64.599-.92s.546-.453.92-.598c.282-.11.705-.24 1.485-.276.738-.034 1.024-.044 2.515-.045zm4.988 1.328a.96.96 0 1 0 0 1.92.96.96 0 0 0 0-1.92m-4.27 1.122a4.109 4.109 0 1 0 0 8.217 4.109 4.109 0 0 0 0-8.217m0 1.441a2.667 2.667 0 1 1 0 5.334 2.667 2.667 0 0 1 0-5.334"/>
    </symbol>
    <symbol class="bi bi-linkedin" viewBox="0 0 16 16" id="linkedin">
        <path d="M0 1.146C0 .513.526 0 1.175 0h13.65C15.474 0 16 .513 16 1.146v13.708c0 .633-.526 1.146-1.175 1.146H1.175C.526 16 0 15.487 0 14.854zm4.943 12.248V6.169H2.542v7.225zm-1.2-8.212c.837 0 1.358-.554 1.358-1.248-.015-.709-.52-1.248-1.342-1.248S2.4 3.226 2.4 3.934c0 .694.521 1.248 1.327 1.248zm4.908 8.212V9.359c0-.216.016-.432.08-.586.173-.431.568-.878 1.232-.878.869 0 1.216.662 1.216 1.634v3.865h2.401V9.25c0-2.22-1.184-3.252-2.764-3.252-1.274 0-1.845.7-2.165 1.193v.025h-.016l.016-.025V6.169h-2.4c.03.678 0 7.225 0 7.225z"/>
    </symbol>

    <!-- Demo -->
        <symbol class="bi bi-house" viewBox="0 0 16 16" id="house">
        <path d="M8.707 1.5a1 1 0 0 0-1.414 0L.646 8.146a.5.5 0 0 0 .708.708L2 8.207V13.5A1.5 1.5 0 0 0 3.5 15h9a1.5 1.5 0 0 0 1.5-1.5V8.207l.646.647a.5.5 0 0 0 .708-.708L13 5.793V2.5a.5.5 0 0 0-.5-.5h-1a.5.5 0 0 0-.5.5v1.293zM13 7.207V13.5a.5.5 0 0 1-.5.5h-9a.5.5 0 0 1-.5-.5V7.207l5-5z"/>
    </symbol>
        <symbol class="bi bi-reception-4" viewBox="0 0 16 16" id="reception-4">
        <path d="M0 11.5a.5.5 0 0 1 .5-.5h2a.5.5 0 0 1 .5.5v2a.5.5 0 0 1-.5.5h-2a.5.5 0 0 1-.5-.5zm4-3a.5.5 0 0 1 .5-.5h2a.5.5 0 0 1 .5.5v5a.5.5 0 0 1-.5.5h-2a.5.5 0 0 1-.5-.5zm4-3a.5.5 0 0 1 .5-.5h2a.5.5 0 0 1 .5.5v8a.5.5 0 0 1-.5.5h-2a.5.5 0 0 1-.5-.5zm4-3a.5.5 0 0 1 .5-.5h2a.5.5 0 0 1 .5.5v11a.5.5 0 0 1-.5.5h-2a.5.5 0 0 1-.5-.5z"/>
    </symbol>
        <symbol class="bi bi-pen" viewBox="0 0 16 16" id="pen">
        <path d="m13.498.795.149-.149a1.207 1.207 0 1 1 1.707 1.708l-.149.148a1.5 1.5 0 0 1-.059 2.059L4.854 14.854a.5.5 0 0 1-.233.131l-4 1a.5.5 0 0 1-.606-.606l1-4a.5.5 0 0 1 .131-.232l9.642-9.642a.5.5 0 0 0-.642.056L6.854 4.854a.5.5 0 1 1-.708-.708L9.44.854A1.5 1.5 0 0 1 11.5.796a1.5 1.5 0 0 1 1.998-.001m-.644.766a.5.5 0 0 0-.707 0L1.95 11.756l-.764 3.057 3.057-.764L14.44 3.854a.5.5 0 0 0 0-.708z"/>
    </symbol>
    <symbol class="bi bi-folder" viewBox="0 0 16 16" id="folder">
        <path d="M.54 3.87.5 3a2 2 0 0 1 2-2h3.672a2 2 0 0 1 1.414.586l.828.828A2 2 0 0 0 9.828 3h3.982a2 2 0 0 1 1.992 2.181l-.637 7A2 2 0 0 1 13.174 14H2.826a2 2 0 0 1-1.991-1.819l-.637-7a2 2 0 0 1 .342-1.31zM2.19 4a1 1 0 0 0-.996 1.09l.637 7a1 1 0 0 0 .995.91h10.348a1 1 0 0 0 .995-.91l.637-7A1 1 0 0 0 13.81 4zm4.69-1.707A1 1 0 0 0 6.172 2H2.5a1 1 0 0 0-1 .981l.006.139q.323-.119.684-.12h5.396z"/>
    </symbol>
    <symbol class="bi bi-archive" viewBox="0 0 16 16" id="archive">
        <path d="M0 2a1 1 0 0 1 1-1h14a1 1 0 0 1 1 1v2a1 1 0 0 1-1 1v7.5a2.5 2.5 0 0 1-2.5 2.5h-9A2.5 2.5 0 0 1 1 12.5V5a1 1 0 0 1-1-1zm2 3v7.5A1.5 1.5 0 0 0 3.5 14h9a1.5 1.5 0 0 0 1.5-1.5V5zm13-3H1v2h14zM5 7.5a.5.5 0 0 1 .5-.5h5a.5.5 0 0 1 0 1h-5a.5.5 0 0 1-.5-.5"/>
    </symbol>
        <symbol class="bi bi-file-pdf" viewBox="0 0 16 16" id="file-pdf">
        <path d="M4 0a2 2 0 0 0-2 2v12a2 2 0 0 0 2 2h8a2 2 0 0 0 2-2V2a2 2 0 0 0-2-2zm0 1h8a1 1 0 0 1 1 1v12a1 1 0 0 1-1 1H4a1 1 0 0 1-1-1V2a1 1 0 0 1 1-1"/>
        <path d="M4.603 12.087a.8.8 0 0 1-.438-.42c-.195-.388-.13-.776.08-1.102.198-.307.526-.568.897-.787a7.7 7.7 0 0 1 1.482-.645 20 20 0 0 0 1.062-2.227 7.3 7.3 0 0 1-.43-1.295c-.086-.4-.119-.796-.046-1.136.075-.354.274-.672.65-.823.192-.077.4-.12.602-.077a.7.7 0 0 1 .477.365c.088.164.12.356.127.538.007.187-.012.395-.047.614-.084.51-.27 1.134-.52 1.794a11 11 0 0 0 .98 1.686 5.8 5.8 0 0 1 1.334.05c.364.065.734.195.96.465.12.144.193.32.2.518.007.192-.047.382-.138.563a1.04 1.04 0 0 1-.354.416.86.86 0 0 1-.51.138c-.331-.014-.654-.196-.933-.417a5.7 5.7 0 0 1-.911-.95 11.6 11.6 0 0 0-1.997.406 11.3 11.3 0 0 1-1.021 1.51c-.29.35-.608.655-.926.787a.8.8 0 0 1-.58.029m1.379-1.901q-.25.115-.459.238c-.328.194-.541.383-.647.547-.094.145-.096.25-.04.361q.016.032.026.044l.035-.012c.137-.056.355-.235.635-.572a8 8 0 0 0 .45-.606m1.64-1.33a13 13 0 0 1 1.01-.193 12 12 0 0 1-.51-.858 21 21 0 0 1-.5 1.05zm2.446.45q.226.244.435.41c.24.19.407.253.498.256a.1.1 0 0 0 .07-.015.3.3 0 0 0 .094-.125.44.44 0 0 0 .059-.2.1.1 0 0 0-.026-.063c-.052-.062-.2-.152-.518-.209a4 4 0 0 0-.612-.053zM8.078 5.8a7 7 0 0 0 .2-.828q.046-.282.038-.465a.6.6 0 0 0-.032-.198.5.5 0 0 0-.145.04c-.087.035-.158.106-.196.283-.04.192-.03.469.046.822q.036.167.09.346z"/>
    </symbol>
        <symbol class="bi bi-file-earmark" viewBox="0 0 16 16" id="file-earmark">
        <path d="M14 4.5V14a2 2 0 0 1-2 2H4a2 2 0 0 1-2-2V2a2 2 0 0 1 2-2h5.5zm-3 0A1.5 1.5 0 0 1 9.5 3V1H4a1 1 0 0 0-1 1v12a1 1 0 0 0 1 1h8a1 1 0 0 0 1-1V4.5z"/>
    </symbol>
        <symbol class="bi bi-image" viewBox="0 0 16 16" id="image">
        <path d="M6.002 5.5a1.5 1.5 0 1 1-3 0 1.5 1.5 0 0 1 3 0"/>
        <path d="M2.002 1a2 2 0 0 0-2 2v10a2 2 0 0 0 2 2h12a2 2 0 0 0 2-2V3a2 2 0 0 0-2-2zm12 1a1 1 0 0 1 1 1v6.5l-3.777-1.947a.5.5 0 0 0-.577.093l-3.71 3.71-2.66-1.772a.5.5 0 0 0-.63.062L1.002 12V3a1 1 0 0 1 1-1z"/>
    </symbol>
    <symbol class="bi bi-file-plus" viewBox="0 0 16 16" id="file-plus">
        <path d="M8.5 6a.5.5 0 0 0-1 0v1.5H6a.5.5 0 0 0 0 1h1.5V10a.5.5 0 0 0 1 0V8.5H10a.5.5 0 0 0 0-1H8.5z"/>
        <path d="M2 2a2 2 0 0 1 2-2h8a2 2 0 0 1 2 2v12a2 2 0 0 1-2 2H4a2 2 0 0 1-2-2zm10-1H4a1 1 0 0 0-1 1v12a1 1 0 0 0 1 1h8a1 1 0 0 0 1-1V2a1 1 0 0 0-1-1"/>
    </symbol>
    <symbol class="bi bi-bell" viewBox="0 0 16 16" id="bell">
        <path d="M8 16a2 2 0 0 0 2-2H6a2 2 0 0 0 2 2M8 1.918l-.797.161A4 4 0 0 0 4 6c0 .628-.134 2.197-.459 3.742-.16.767-.376 1.566-.663 2.258h10.244c-.287-.692-.502-1.49-.663-2.258C12.134 8.197 12 6.628 12 6a4 4 0 0 0-3.203-3.92zM14.22 12c.223.447.481.801.78 1H1c.299-.199.557-.553.78-1C2.68 10.2 3 6.88 3 6c0-2.42 1.72-4.44 4.005-4.901a1 1 0 1 1 1.99 0A5 5 0 0 1 13 6c0 .88.32 4.2 1.22 6"/>
    </symbol>
    <symbol class="bi bi-cart" viewBox="0 0 16 16" id="cart">
        <path d="M0 1.5A.5.5 0 0 1 .5 1H2a.5.5 0 0 1 .485.379L2.89 3H14.5a.5.5 0 0 1 .491.592l-1.5 8A.5.5 0 0 1 13 12H4a.5.5 0 0 1-.491-.408L2.01 3.607 1.61 2H.5a.5.5 0 0 1-.5-.5M3.102 4l1.313 7h8.17l1.313-7zM5 12a2 2 0 1 0 0 4 2 2 0 0 0 0-4m7 0a2 2 0 1 0 0 4 2 2 0 0 0 0-4m-7 1a1 1 0 1 1 0 2 1 1 0 0 1 0-2m7 0a1 1 0 1 1 0 2 1 1 0 0 1 0-2"/>
    </symbol>
    <symbol class="bi bi-hash" viewBox="0 0 16 16" id="hash">
        <path d="M8.39 12.648a1 1 0 0 0-.015.18c0 .305.21.508.5.508.266 0 .492-.172.555-.477l.554-2.703h1.204c.421 0 .617-.234.617-.547 0-.312-.188-.53-.617-.53h-.985l.516-2.524h1.265c.43 0 .618-.227.618-.547 0-.313-.188-.524-.618-.524h-1.046l.476-2.304a1 1 0 0 0 .016-.164.51.51 0 0 0-.516-.516.54.54 0 0 0-.539.43l-.523 2.554H7.617l.477-2.304c.008-.04.015-.118.015-.164a.51.51 0 0 0-.523-.516.54.54 0 0 0-.531.43L6.53 5.484H5.414c-.43 0-.617.22-.617.532s.187.539.617.539h.906l-.515 2.523H4.609c-.421 0-.609.219-.609.531s.188.547.61.547h.976l-.516 2.492c-.008.04-.015.125-.015.18 0 .305.21.508.5.508.265 0 .492-.172.554-.477l.555-2.703h2.242zm-1-6.109h2.266l-.515 2.563H6.859l.532-2.563z"/>
    </symbol>
    <symbol class="bi bi-heart" viewBox="0 0 16 16" id="heart">
        <path d="m8 2.748-.717-.737C5.6.281 2.514.878 1.4 3.053c-.523 1.023-.641 2.5.314 4.385.92 1.815 2.834 3.989 6.286 6.357 3.452-2.368 5.365-4.542 6.286-6.357.955-1.886.838-3.362.314-4.385C13.486.878 10.4.28 8.717 2.01zM8 15C-7.333 4.868 3.279-3.04 7.824 1.143q.09.083.176.171a3 3 0 0 1 .176-.17C12.72-3.042 23.333 4.867 8 15"/>
    </symbol>
    <symbol class="bi bi-lightning-charge" viewBox="0 0 16 16" id="lightning-charge">
        <path d="M11.251.068a.5.5 0 0 1 .227.58L9.677 6.5H13a.5.5 0 0 1 .364.843l-8 8.5a.5.5 0 0 1-.842-.49L6.323 9.5H3a.5.5 0 0 1-.364-.843l8-8.5a.5.5 0 0 1 .615-.09zM4.157 8.5H7a.5.5 0 0 1 .478.647L6.11 13.59l5.732-6.09H9a.5.5 0 0 1-.478-.647L9.89 2.41z"/>
    </symbol>
    <symbol class="bi bi-volume-up" viewBox="0 0 16 16" id="volume-up">
        <path d="M11.536 14.01A8.47 8.47 0 0 0 14.026 8a8.47 8.47 0 0 0-2.49-6.01l-.708.707A7.48 7.48 0 0 1 13.025 8c0 2.071-.84 3.946-2.197 5.303z"/>
        <path d="M10.121 12.596A6.48 6.48 0 0 0 12.025 8a6.48 6.48 0 0 0-1.904-4.596l-.707.707A5.48 5.48 0 0 1 11.025 8a5.48 5.48 0 0 1-1.61 3.89z"/>
        <path d="M10.025 8a4.5 4.5 0 0 1-1.318 3.182L8 10.475A3.5 3.5 0 0 0 9.025 8c0-.966-.392-1.841-1.025-2.475l.707-.707A4.5 4.5 0 0 1 10.025 8M7 4a.5.5 0 0 0-.812-.39L3.825 5.5H1.5A.5.5 0 0 0 1 6v4a.5.5 0 0 0 .5.5h2.325l2.363 1.89A.5.5 0 0 0 7 12zM4.312 6.39 6 5.04v5.92L4.312 9.61A.5.5 0 0 0 4 9.5H2v-3h2a.5.5 0 0 0 .312-.11"/>
    </symbol>
    <symbol class="bi bi-volume-mute" viewBox="0 0 16 16" id="volume-mute">
        <path d="M6.717 3.55A.5.5 0 0 1 7 4v8a.5.5 0 0 1-.812.39L3.825 10.5H1.5A.5.5 0 0 1 1 10V6a.5.5 0 0 1 .5-.5h2.325l2.363-1.89a.5.5 0 0 1 .529-.06M6 5.04 4.312 6.39A.5.5 0 0 1 4 6.5H2v3h2a.5.5 0 0 1 .312.11L6 10.96zm7.854.606a.5.5 0 0 1 0 .708L12.207 8l1.647 1.646a.5.5 0 0 1-.708.708L11.5 8.707l-1.646 1.647a.5.5 0 0 1-.708-.708L10.793 8 9.146 6.354a.5.5 0 1 1 .708-.708L11.5 7.293l1.646-1.647a.5.5 0 0 1 .708 0"/>
    </symbol>
    <symbol class="bi bi-sun-fill" viewBox="0 0 16 16" id="sun-fill">
        <path d="M8 12a4 4 0 1 0 0-8 4 4 0 0 0 0 8M8 0a.5.5 0 0 1 .5.5v2a.5.5 0 0 1-1 0v-2A.5.5 0 0 1 8 0m0 13a.5.5 0 0 1 .5.5v2a.5.5 0 0 1-1 0v-2A.5.5 0 0 1 8 13m8-5a.5.5 0 0 1-.5.5h-2a.5.5 0 0 1 0-1h2a.5.5 0 0 1 .5.5M3 8a.5.5 0 0 1-.5.5h-2a.5.5 0 0 1 0-1h2A.5.5 0 0 1 3 8m10.657-5.657a.5.5 0 0 1 0 .707l-1.414 1.415a.5.5 0 1 1-.707-.708l1.414-1.414a.5.5 0 0 1 .707 0m-9.193 9.193a.5.5 0 0 1 0 .707L3.05 13.657a.5.5 0 0 1-.707-.707l1.414-1.414a.5.5 0 0 1 .707 0m9.193 2.121a.5.5 0 0 1-.707 0l-1.414-1.414a.5.5 0 0 1 .707-.707l1.414 1.414a.5.5 0 0 1 0 .707M4.464 4.465a.5.5 0 0 1-.707 0L2.343 3.05a.5.5 0 1 1 .707-.707l1.414 1.414a.5.5 0 0 1 0 .708"/>
    </symbol>
    <symbol class="bi bi-moon-stars-fill" viewBox="0 0 16 16" id="moon-stars-fill">
        <path d="M6 .278a.77.77 0 0 1 .08.858 7.2 7.2 0 0 0-.878 3.46c0 4.021 3.278 7.277 7.318 7.277q.792-.001 1.533-.16a.79.79 0 0 1 .81.316.73.73 0 0 1-.031.893A8.35 8.35 0 0 1 8.344 16C3.734 16 0 12.286 0 7.71 0 4.266 2.114 1.312 5.124.06A.75.75 0 0 1 6 .278"/>
        <path d="M10.794 3.148a.217.217 0 0 1 .412 0l.387 1.162c.173.518.579.924 1.097 1.097l1.162.387a.217.217 0 0 1 0 .412l-1.162.387a1.73 1.73 0 0 0-1.097 1.097l-.387 1.162a.217.217 0 0 1-.412 0l-.387-1.162A1.73 1.73 0 0 0 9.31 6.593l-1.162-.387a.217.217 0 0 1 0-.412l1.162-.387a1.73 1.73 0 0 0 1.097-1.097zM13.863.099a.145.145 0 0 1 .274 0l.258.774c.115.346.386.617.732.732l.774.258a.145.145 0 0 1 0 .274l-.774.258a1.16 1.16 0 0 0-.732.732l-.258.774a.145.145 0 0 1-.274 0l-.258-.774a1.16 1.16 0 0 0-.732-.732l-.774-.258a.145.145 0 0 1 0-.274l.774-.258c.346-.115.617-.386.732-.732z"/>
    </symbol>
    <symbol class="bi bi-sliders2-vertical" viewBox="0 0 16 16" id="sliders2-vertical">
        <path fill-rule="evenodd" d="M0 10.5a.5.5 0 0 0 .5.5h4a.5.5 0 0 0 0-1H3V1.5a.5.5 0 0 0-1 0V10H.5a.5.5 0 0 0-.5.5M2.5 12a.5.5 0 0 0-.5.5v2a.5.5 0 0 0 1 0v-2a.5.5 0 0 0-.5-.5m3-6.5A.5.5 0 0 0 6 6h1.5v8.5a.5.5 0 0 0 1 0V6H10a.5.5 0 0 0 0-1H6a.5.5 0 0 0-.5.5M8 1a.5.5 0 0 0-.5.5v2a.5.5 0 0 0 1 0v-2A.5.5 0 0 0 8 1m3 9.5a.5.5 0 0 0 .5.5h4a.5.5 0 0 0 0-1H14V1.5a.5.5 0 0 0-1 0V10h-1.5a.5.5 0 0 0-.5.5m2.5 1.5a.5.5 0 0 0-.5.5v2a.5.5 0 0 0 1 0v-2a.5.5 0 0 0-.5-.5"/>
    </symbol>

</svg>
